<?xml version="1.0" encoding="utf-8"?>
<svg viewBox="23.442 22.063 450.809 284.412" xmlns="http://www.w3.org/2000/svg">
  <defs>
    <linearGradient gradientUnits="userSpaceOnUse" x1="631.5" y1="5" x2="631.5" y2="1780.329" id="gradient-0">
      <stop offset="0" style="stop-color: rgba(84, 228, 81, 1)"/>
      <stop offset="1" style="stop-color: rgba(30, 179, 28, 1)"/>
    </linearGradient>
    <linearGradient gradientUnits="userSpaceOnUse" x1="1662.865" y1="533" x2="1662.865" y2="1778" id="gradient-1">
      <stop offset="0" style="stop-color: rgba(84, 228, 81, 1)"/>
      <stop offset="1" style="stop-color: rgba(30, 179, 28, 1)"/>
    </linearGradient>
    <linearGradient gradientUnits="userSpaceOnUse" x1="1077" y1="-3" x2="1077" y2="759" id="gradient-2">
      <stop offset="0" style="stop-color: rgba(84, 228, 81, 1)"/>
      <stop offset="1" style="stop-color: rgba(30, 179, 28, 1)"/>
    </linearGradient>
    <linearGradient gradientUnits="userSpaceOnUse" x1="2741.054" y1="-2.649" x2="2741.054" y2="1772.68" id="gradient-3">
      <stop offset="0" style="stop-color: rgba(84, 228, 81, 1)"/>
      <stop offset="1" style="stop-color: rgba(30, 179, 28, 1)"/>
    </linearGradient>
    <linearGradient gradientUnits="userSpaceOnUse" x1="1740.432" y1="1842.718" x2="1740.432" y2="2140.305" id="gradient-4">
      <stop offset="0" style="stop-color: rgba(84, 228, 81, 1)"/>
      <stop offset="1" style="stop-color: rgba(30, 179, 28, 1)"/>
    </linearGradient>
  </defs>
  <path class="fil0" d="M8 1241c0,163 101,331 232,420 15,11 29,18 44,27 56,34 140,64 211,78 66,12 61,6 99,11 49,6 52,3 107,-2 111,-9 192,-40 281,-98 148,-98 273,-313 273,-492 0,-116 -5,-192 -55,-296 -27,-56 -60,-104 -99,-151 -102,-121 -235,-208 -406,-208 -87,0 -115,-2 -202,11 -15,2 -31,5 -44,5l0 315c14,0 32,-3 49,-5 151,-17 344,5 397,160 38,115 24,269 -53,362 -58,69 -144,89 -234,89 -124,0 -218,-95 -256,-183 -31,-70 -27,-96 -27,-192 0,-212 9,-434 8,-652 0,-23 3,-31 5,-49l0 -166c0,-78 3,-142 3,-220l-330 0 0 1238 -2 -2z" style="fill: url(#gradient-0);" transform="matrix(0.132698, 0, 0, 0.132698, 22.380526, 22.460883)"/>
  <path class="fil0" d="M1338 999l0 299c107,0 203,5 263,90 52,76 61,269 49,369 -2,12 -2,21 11,21l315 0c9,0 11,-3 11,-11 0,-182 17,-429 -113,-557 -21,-20 -69,-64 -99,-67 14,-20 98,-20 162,-179 53,-134 50,-281 50,-431l-325 0c-18,0 -11,50 -11,87 0,35 -2,66 -3,95 -6,64 -14,116 -37,163 -46,98 -137,113 -232,113 -18,0 -38,-9 -38,8l-2 -2z" style="fill: url(#gradient-1);" transform="matrix(0.132698, 0, 0, 0.132698, 22.380526, 22.460883)"/>
  <path class="fil0" d="M902 461c0,15 63,32 105,55 87,47 153,118 211,195 6,8 11,15 17,24 3,5 5,8 8,12l9 12 0 -762 -348 0 0 463 -2 0z" style="fill: url(#gradient-2);" transform="matrix(0.132698, 0, 0, 0.132698, 22.380526, 22.460883)"/>
  <path class="fil0" d="M 2117.554 1233.351 C 2117.554 1396.351 2218.554 1564.351 2349.554 1653.351 C 2364.554 1664.351 2378.554 1671.351 2393.554 1680.351 C 2449.554 1714.351 2533.554 1744.351 2604.554 1758.351 C 2670.554 1770.351 2665.554 1764.351 2703.554 1769.351 C 2752.554 1775.351 2755.554 1772.351 2810.554 1767.351 C 2921.554 1758.351 3002.554 1727.351 3091.554 1669.351 C 3239.554 1571.351 3364.554 1356.351 3364.554 1177.351 C 3364.554 1061.351 3359.554 985.351 3309.554 881.351 C 3282.554 825.351 3249.554 777.351 3210.554 730.351 C 3108.554 609.351 2975.554 522.351 2804.554 522.351 C 2717.554 522.351 2689.554 520.351 2602.554 533.351 C 2587.554 535.351 2571.554 538.351 2558.554 538.351 L 2558.554 853.351 C 2572.554 853.351 2590.554 850.351 2607.554 848.351 C 2758.554 831.351 2951.554 853.351 3004.554 1008.351 C 3042.554 1123.351 3028.554 1277.351 2951.554 1370.351 C 2893.554 1439.351 2807.554 1459.351 2717.554 1459.351 C 2593.554 1459.351 2499.554 1364.351 2461.554 1276.351 C 2430.554 1206.351 2434.554 1180.351 2434.554 1084.351 C 2434.554 872.351 2443.554 650.351 2442.554 432.351 C 2442.554 409.351 2445.554 401.351 2447.554 383.351 L 2447.554 217.351 C 2447.554 139.351 2450.554 75.351 2450.554 -2.649 L 2120.554 -2.649 L 2120.554 1235.351 L 2118.554 1233.351 L 2117.554 1233.351 Z" style="fill: url(#gradient-3);" transform="matrix(0.132698, 0, 0, 0.132698, 22.380526, 22.460883)"/>
  <text style="fill: url(#gradient-4); font-family: Arial, sans-serif; font-size: 266.142px; font-weight: 700; line-height: 425.826px; stroke-width: 0px; white-space: pre;" x="75.606" y="2084.94" transform="matrix(0.132698, 0, 0, 0.132698, 22.380526, 22.460883)">PRODUCT MANAGEMENT</text>
</svg>